<?xml version="1.0" encoding="utf-8"?>
<!-- Generator: Adobe Illustrator 19.0.0, SVG Export Plug-In . SVG Version: 6.00 Build 0)  -->
<svg version="1.1" id="Layer_1" xmlns="http://www.w3.org/2000/svg" xmlns:xlink="http://www.w3.org/1999/xlink" x="0px" y="0px"
	 width="1019.4px" height="965.4px" viewBox="-556.4 -326 1019.4 965.4" style="enable-background:new -556.4 -326 1019.4 965.4;"
	 xml:space="preserve">
<style type="text/css">
	.st0{opacity:0.2;}
	.st1{fill:#FFFFFF;}
</style>
<g class="st0">
	<g>
		<path id="SVGCleanerId_0" class="st1" d="M-324.9-52.7c0,9.9-8,17.9-17.9,17.9c-9.9,0-18-8-18-17.9c0-9.9,8-18,18-18
			C-333-70.7-324.9-62.6-324.9-52.7z"/>
	</g>
	<path class="st1" d="M-272.5,19c7.4,7.4,7.4,19.5,0,26.9c-3.7,3.7-8.6,5.6-13.4,5.6c-4.9,0-9.7-1.9-13.4-5.6l-6.6-6.6
		c-7.4-7.4-7.4-19.5,0-26.9c7.4-7.4,19.5-7.4,26.9,0L-272.5,19z"/>
	<path class="st1" d="M-252.2,45.9c-7.4-7.4-7.4-19.5,0-26.9l6.6-6.6c7.4-7.4,19.5-7.4,26.9,0c7.4,7.4,7.4,19.5,0,26.9l-6.6,6.6
		c-3.7,3.7-8.6,5.6-13.5,5.6C-243.6,51.4-248.5,49.6-252.2,45.9z"/>
	<path class="st1" d="M-199.7-52.7c0-9.9,8-18,18-18c9.9,0,17.9,8,17.9,18c0,9.9-8,17.9-17.9,17.9
		C-191.7-34.8-199.7-42.8-199.7-52.7z"/>
	<path class="st1" d="M220.3,218.9c-16.8-31.5-41-62.2-72-91C123.9,105,96.2,84.2,65.9,66.1c-10-6-23-2.7-29,7.2
		c-6,10-2.8,23,7.2,29c27.7,16.6,53.1,35.6,75.3,56.4c27.1,25.3,49.1,53,63.5,80.1c3.8,7.1,11.1,11.2,18.7,11.2
		c3.4,0,6.8-0.8,9.9-2.5C221.9,242,225.8,229.2,220.3,218.9z M220.3,218.9c-16.8-31.5-41-62.2-72-91C123.9,105,96.2,84.2,65.9,66.1
		c-10-6-23-2.7-29,7.2c-6,10-2.8,23,7.2,29c27.7,16.6,53.1,35.6,75.3,56.4c27.1,25.3,49.1,53,63.5,80.1c3.8,7.1,11.1,11.2,18.7,11.2
		c3.4,0,6.8-0.8,9.9-2.5C221.9,242,225.8,229.2,220.3,218.9z M220.3,218.9c-16.8-31.5-41-62.2-72-91C123.9,105,96.2,84.2,65.9,66.1
		c-10-6-23-2.7-29,7.2c-6,10-2.8,23,7.2,29c27.7,16.6,53.1,35.6,75.3,56.4c27.1,25.3,49.1,53,63.5,80.1c3.8,7.1,11.1,11.2,18.7,11.2
		c3.4,0,6.8-0.8,9.9-2.5C221.9,242,225.8,229.2,220.3,218.9z M220.3,218.9c-16.8-31.5-41-62.2-72-91C123.9,105,96.2,84.2,65.9,66.1
		c-10-6-23-2.7-29,7.2c-6,10-2.8,23,7.2,29c27.7,16.6,53.1,35.6,75.3,56.4c27.1,25.3,49.1,53,63.5,80.1c3.8,7.1,11.1,11.2,18.7,11.2
		c3.4,0,6.8-0.8,9.9-2.5C221.9,242,225.8,229.2,220.3,218.9z M321.8-301.4c-77.9,0-141.2,63.4-141.2,141.2v185
		C160.6,9,139.3-5.7,117-19.1c-31.5-18.9-64-34.6-97-47c7.7-15.5,11.8-32.7,11.8-50.3c0-62.3-50.7-112.9-112.9-112.9
		c-2.9,0-5.6,0.1-8.4,0.3c-36.6-60.2-101.5-97-172.8-97c-71.3,0-136.2,36.8-172.8,97c-2.7-0.2-5.5-0.3-8.3-0.3
		c-62.3,0-112.9,50.7-112.9,112.9c0,62.3,50.7,112.9,112.9,112.9c6,0,11.9-0.5,17.6-1.4c0.1,0.1,0.1,0.2,0.2,0.3
		c1.9,52.1,29,100.6,72.2,129.7c9,43.3,30.7,88.6,63,131.8v242.2c0,22.7,8.9,44.1,24.9,60.2c9.6,9.6,21.4,16.7,34.2,20.8
		c11,34.3,43.2,59.2,81.1,59.2c46.9,0,85.1-38.2,85.1-85.1V431.6c14,6.2,28.1,11.7,42.3,16.6c-13.4,14.1-21.7,33.1-21.7,54
		c0,20.9,8.1,40.6,22.9,55.4c10.6,10.6,23.7,17.7,38,21c3.2,14.3,10.4,27.4,21,38c14.8,14.8,34.5,22.9,55.4,22.9h137
		c61.1,0,110.8-49.7,110.8-110.5l2.4-526.1c11.6,6.4,24.8,10,38.9,10c44.8,0,81.2-36.4,81.2-81.2v-91.8
		C463-238.1,399.6-301.4,321.8-301.4z M-514.2-116.3c0-35.1,25.8-64.4,59.4-69.8c-6.5,20.1-9.9,41.3-9.9,62.4
		c0,26.9,5.4,53.3,15.7,77.8C-485.4-48.7-514.2-79.2-514.2-116.3z M-69.9-186.1c33.7,5.4,59.4,34.6,59.4,69.8
		c0,17.5-6.4,34.2-18,47.2c-12.2,13.6-29.1,21.9-47.2,23.3c2.8-6.7,5.3-13.6,7.4-20.7c5.5-18.5,8.3-37.7,8.3-57.1
		C-60.1-144.9-63.4-166-69.9-186.1z M-262.3-283.8c57.1,0,109.1,29.9,137.9,78.7c-29.7,47.4-81.5,76.4-137.8,76.4
		c-56.4,0-108.3-29-137.9-76.4C-371.5-253.8-319.5-283.8-262.3-283.8z M-383.5-10c0-0.6,0.1-1.1,0.1-1.7c0-4.8-1.6-9.4-4.5-13.1
		c-3.8-4.8-7.3-9.8-10.5-15.1c-15.6-25.2-23.9-54.2-23.9-83.9c0-11.9,1.3-23.6,3.8-35c38.5,45.4,95.3,72.3,156.3,72.3
		c60.9,0,117.7-27,156.2-72.4c2.5,11.4,3.8,23.1,3.8,35c0,15.4-2.2,30.6-6.5,45.2l0,0c-5.7,19.5-15.1,37.6-27.9,53.7
		c-2.9,3.7-4.5,8.3-4.5,13.1c0,0.6,0,1.2,0.1,1.9c-0.3,66.5-54.6,120.6-121.2,120.6c-21.7,0-42.9-5.8-61.4-16.7
		C-360.5,72.4-383.4,32.6-383.5-10z M-235.4,529.8c-0.1-0.1-0.2-0.2-0.3-0.3c-8.1-8.1-12.6-18.8-12.6-30.3V306.1
		c4.2,4.3,8.5,8.5,12.9,12.7L-235.4,529.8L-235.4,529.8z M18.9,535c-3.9-1.8-7.5-4.2-10.6-7.3c-6.8-6.8-10.5-15.8-10.5-25.5
		c0-19.9,16.2-36,36-36h8.2c16.9,3.5,51.4,7.6,52,7.6h0.3c2.6,3.1,5.4,6.2,8.3,9.1h-9.9C58.5,482.9,29.6,504.5,18.9,535z
		 M298.2,528.7c0,37.8-30.7,68.5-68.5,68.5h-137c-9.6,0-18.7-3.7-25.5-10.6c-6.8-6.8-10.5-15.8-10.5-25.5c0-0.4,0-0.8,0-1.2
		c0.6-19.5,16.4-34.9,36-34.9c0,0,110.6,0,111.4,0c11.7,0,21.1-9.5,21.1-21.1c0-11.7-9.5-21.1-21.1-21.1
		c-55.9,0-101.3-45.5-101.3-101.3c0-11.7-9.5-21.1-21.1-21.1c-11.7,0-21.1,9.5-21.1,21.1c0,14.8,2.2,29,6.4,42.4H46.3
		c-36.9-8-74.6-21.1-111.4-38.8V302c0-11.7-9.5-21.1-21.1-21.1c-11.7,0-21.1,9.4-21.1,21.1v252.4c0,23.6-19.2,42.9-42.9,42.9
		c-23.6,0-42.9-19.2-42.9-42.9V263.2c0-11.7-9.5-21.1-21.1-21.1c-10.1,0-18.5,7.1-20.6,16.5c-6.3-7.1-12.2-14.3-17.8-21.5
		c-22.8-29.4-39.9-59.7-50.6-89.2c13.3,3.4,27,5.2,40.9,5.2C-174.2,153-102.1,82.9-99-4.5c0.1-0.1,0.1-0.2,0.2-0.3
		c5.7,0.9,11.6,1.4,17.7,1.4c27.3,0,53.5-9.9,73.9-27.5C27.6-18.9,62-2.8,95.3,17.2c33.7,20.2,64.6,43.4,92,69
		c68.8,64.3,110.6,140.2,113.2,204.8L298.2,528.7z M420.8-68.4c0,21.5-17.5,38.9-38.9,38.9s-38.9-17.5-38.9-38.9l0,0v-91.9
		c0-11.7-9.4-21.1-21.1-21.1c-11.7,0-21.1,9.5-21.1,21.1v319c-19.7-33.4-45.9-66.3-77.8-97.1v-221.8c0-54.6,44.4-99,99-99
		c54.6,0,99,44.4,99,99V-68.4z M148.3,127.8C123.9,105,96.2,84.2,65.9,66.1c-10-6-23-2.7-29,7.2c-6,10-2.8,23,7.2,29
		c27.7,16.6,53.1,35.6,75.3,56.4c27.1,25.3,49.1,53,63.5,80.1c3.8,7.1,11.1,11.2,18.7,11.2c3.4,0,6.8-0.8,9.9-2.5
		c10.3-5.5,14.2-18.3,8.7-28.6C203.5,187.3,179.3,156.7,148.3,127.8z M220.3,218.9c-16.8-31.5-41-62.2-72-91
		C123.9,105,96.2,84.2,65.9,66.1c-10-6-23-2.7-29,7.2c-6,10-2.8,23,7.2,29c27.7,16.6,53.1,35.6,75.3,56.4
		c27.1,25.3,49.1,53,63.5,80.1c3.8,7.1,11.1,11.2,18.7,11.2c3.4,0,6.8-0.8,9.9-2.5C221.9,242,225.8,229.2,220.3,218.9z M220.3,218.9
		c-16.8-31.5-41-62.2-72-91C123.9,105,96.2,84.2,65.9,66.1c-10-6-23-2.7-29,7.2c-6,10-2.8,23,7.2,29c27.7,16.6,53.1,35.6,75.3,56.4
		c27.1,25.3,49.1,53,63.5,80.1c3.8,7.1,11.1,11.2,18.7,11.2c3.4,0,6.8-0.8,9.9-2.5C221.9,242,225.8,229.2,220.3,218.9z"/>
	<g>
		<path id="SVGCleanerId_0_1_" class="st1" d="M-324.9-52.7c0,9.9-8,17.9-17.9,17.9c-9.9,0-18-8-18-17.9c0-9.9,8-18,18-18
			C-333-70.7-324.9-62.6-324.9-52.7z"/>
	</g>
	<path class="st1" d="M-272.5,19c7.4,7.4,7.4,19.5,0,26.9c-3.7,3.7-8.6,5.6-13.4,5.6c-4.9,0-9.7-1.9-13.4-5.6l-6.6-6.6
		c-7.4-7.4-7.4-19.5,0-26.9c7.4-7.4,19.5-7.4,26.9,0L-272.5,19z"/>
	<path class="st1" d="M-218.7,12.4c7.4,7.4,7.4,19.5,0,26.9l-6.6,6.6c-3.7,3.7-8.6,5.6-13.5,5.6c-4.9,0-9.7-1.9-13.4-5.6
		c-7.4-7.4-7.4-19.5,0-26.9l6.6-6.6C-238.2,5-226.2,5-218.7,12.4z"/>
	<path id="SVGCleanerId_1" class="st1" d="M-163.8-52.7c0,9.9-8,17.9-17.9,17.9c-9.9,0-18-8-18-17.9c0-9.9,8-18,18-18
		C-171.9-70.7-163.8-62.6-163.8-52.7z"/>
	<path id="SVGCleanerId_2" class="st1" d="M211.6,247.4c-3.2,1.7-6.6,2.5-9.9,2.5c-7.5,0-14.9-4.1-18.7-11.2
		c-14.4-27-36.4-54.7-63.5-80.1c-22.3-20.8-47.6-39.8-75.3-56.4c-10-6-13.2-19-7.2-29c6-10,19-13.2,29-7.2
		c30.2,18.1,58,38.9,82.4,61.8c30.9,28.9,55.1,59.5,72,91C225.8,229.2,221.9,242,211.6,247.4z"/>
	<g>
		<path id="SVGCleanerId_0_2_" class="st1" d="M-324.9-52.7c0,9.9-8,17.9-17.9,17.9c-9.9,0-18-8-18-17.9c0-9.9,8-18,18-18
			C-333-70.7-324.9-62.6-324.9-52.7z"/>
	</g>
	<g>
		<path id="SVGCleanerId_1_1_" class="st1" d="M-163.8-52.7c0,9.9-8,17.9-17.9,17.9c-9.9,0-18-8-18-17.9c0-9.9,8-18,18-18
			C-171.9-70.7-163.8-62.6-163.8-52.7z"/>
	</g>
	<path class="st1" d="M-272.5,45.9c-3.7,3.7-8.6,5.6-13.4,5.6c-4.9,0-9.7-1.9-13.4-5.6l-6.6-6.6c-7.4-7.4-7.4-19.5,0-26.9
		c7.4-7.4,19.5-7.4,26.9,0l6.6,6.6C-265,26.4-265,38.4-272.5,45.9z"/>
	<path class="st1" d="M-218.7,39.3l-6.6,6.6c-3.7,3.7-8.6,5.6-13.5,5.6c-4.9,0-9.7-1.9-13.4-5.6c-7.4-7.4-7.4-19.5,0-26.9l6.6-6.6
		c7.4-7.4,19.5-7.4,26.9,0C-211.3,19.8-211.3,31.9-218.7,39.3z"/>
	<g>
		<path id="SVGCleanerId_2_1_" class="st1" d="M211.6,247.4c-3.2,1.7-6.6,2.5-9.9,2.5c-7.5,0-14.9-4.1-18.7-11.2
			c-14.4-27-36.4-54.7-63.5-80.1c-22.3-20.8-47.6-39.8-75.3-56.4c-10-6-13.2-19-7.2-29c6-10,19-13.2,29-7.2
			c30.2,18.1,58,38.9,82.4,61.8c30.9,28.9,55.1,59.5,72,91C225.8,229.2,221.9,242,211.6,247.4z"/>
	</g>
</g>
</svg>
